<svg version="1.1" id="Layer_1" xmlns="http://www.w3.org/2000/svg" xmlns:xlink="http://www.w3.org/1999/xlink" x="0px" y="0px"
	 width="100%" viewBox="0 0 1024 1024" enable-background="new 0 0 1024 1024" xml:space="preserve">
<path fill="#000000" opacity="1.000000" stroke="none" 
	d="
M315.863281,811.887939 
	C311.693604,815.497009 307.938354,819.063293 303.856201,822.204651 
	C296.724915,827.692444 288.728302,827.943481 280.699524,824.716187 
	C274.248688,822.123169 271.684357,816.624756 271.671448,809.917664 
	C271.626862,786.753601 271.652985,763.589355 271.646729,740.425171 
	C271.644165,730.906250 271.522949,731.166565 262.900543,727.360413 
	C224.946228,710.606384 198.073090,683.726501 186.400391,643.058411 
	C183.491867,632.924927 182.033813,622.527527 181.769791,612.091248 
	C180.193497,549.785339 180.284866,487.462402 181.225525,425.152283 
	C181.711044,392.990662 181.052826,360.829590 181.771744,328.682220 
	C182.232971,308.058411 186.032623,288.065338 196.225128,269.692139 
	C213.876343,237.873749 240.996933,217.934708 275.046478,206.740204 
	C288.888092,202.189484 303.151062,200.546188 317.763611,200.577362 
	C396.254791,200.744812 474.747345,200.855011 553.237671,200.549301 
	C581.890686,200.437698 610.550110,199.284134 639.202332,199.830536 
	C665.471069,200.331482 690.849609,205.201828 713.642456,219.174469 
	C745.458313,238.678391 766.342896,266.064911 773.032471,303.349976 
	C773.645935,306.769257 773.968994,310.298401 773.914673,313.768524 
	C773.772217,322.857941 769.684448,327.440735 760.712646,329.036621 
	C759.895508,329.181946 759.061890,329.257202 758.232422,329.308014 
	C740.926697,330.368835 738.574280,328.607574 734.429382,311.506592 
	C725.020264,272.686707 695.003418,246.084549 655.268372,241.487366 
	C651.645081,241.068161 647.943420,241.275803 644.278198,241.276184 
	C532.790222,241.287933 421.302246,241.270813 309.814301,241.350983 
	C267.460480,241.381424 228.351425,276.325562 223.481720,318.363037 
	C222.812256,324.142181 222.396484,329.986786 222.392258,335.801453 
	C222.326248,426.624695 221.993805,517.450073 222.539734,608.270081 
	C222.731232,640.126404 237.263504,665.071167 264.458466,682.212036 
	C269.128235,685.155334 271.057098,684.071106 271.684723,678.866455 
	C277.834320,627.870117 303.401794,590.459839 349.768677,567.714722 
	C362.364227,561.535950 375.502502,556.817261 389.320190,554.259827 
	C394.202271,553.356201 399.217438,552.771790 404.175537,552.745605 
	C430.005219,552.609253 455.870880,551.842773 481.659485,552.887512 
	C537.724670,555.158813 581.237671,579.271240 608.661011,629.369995 
	C616.410339,643.527039 620.575134,658.880188 621.438171,675.109070 
	C621.702881,680.087708 622.316040,685.050598 622.261230,690.052673 
	C622.241638,691.843323 622.558594,693.539429 624.830139,693.567627 
	C646.128052,693.832275 667.755249,695.373047 687.383728,684.843506 
	C718.151245,668.338318 735.350708,642.984192 735.659241,607.366882 
	C735.804993,590.536682 735.650940,573.704041 735.676880,556.872559 
	C735.697021,543.819275 740.847290,539.161316 753.624268,538.527344 
	C772.369263,537.597412 775.105713,544.371460 775.329102,560.095398 
	C775.560974,576.416748 776.255554,592.737183 776.199951,609.056091 
	C775.996521,668.799744 734.302124,714.098267 686.798157,728.719788 
	C673.531067,732.803467 659.825317,734.379028 645.951233,734.374268 
	C568.459595,734.347656 490.967896,734.345703 413.476532,734.185669 
	C408.550018,734.175537 404.742981,735.231995 400.893921,738.583496 
	C372.760986,763.079895 344.411591,787.327698 315.863281,811.887939 
z"/>
<path fill="#000000" opacity="1.000000" stroke="none" 
	d="
M501.036621,322.853638 
	C531.366089,341.282196 549.792908,367.369537 555.458801,402.304779 
	C564.771484,459.726044 525.442810,516.122375 467.333496,525.966675 
	C405.903015,536.373474 352.644836,497.655334 340.727936,439.808838 
	C328.131012,378.661469 365.013214,322.701172 426.072510,310.197021 
	C452.243073,304.837646 477.324493,309.580872 501.036621,322.853638 
z"/>
<path fill="#000000" opacity="1.000000" stroke="none" 
	d="
M744.895447,494.401672 
	C738.810242,492.402222 733.234985,490.207703 728.180725,486.913971 
	C725.599182,485.231598 723.577393,485.137543 721.204895,487.572113 
	C710.857605,498.190674 700.452087,508.758728 689.811035,519.080566 
	C686.952576,521.853271 688.177673,524.564392 688.639771,527.333313 
	C691.196899,542.656189 688.135010,556.556824 677.766296,568.296387 
	C665.001160,582.749084 648.625305,587.306274 630.263245,582.907349 
	C611.799805,578.484131 599.523254,566.664307 594.802734,548.035889 
	C587.922363,520.884033 604.837463,494.582611 632.334595,489.993378 
	C641.700806,488.430176 651.311157,489.079987 660.253174,493.103027 
	C662.721619,494.213593 664.411255,494.048492 666.425110,492.088531 
	C676.690186,482.098083 687.040588,472.193054 697.493286,462.399170 
	C700.317627,459.752808 700.817932,457.416656 699.250549,453.694855 
	C683.162598,415.494720 702.645569,371.029572 743.815430,359.091675 
	C783.879883,347.474243 829.476868,371.251953 834.934937,417.470154 
	C839.404907,455.321411 816.839233,490.186707 776.828369,496.461090 
	C766.129883,498.138763 755.640686,497.740692 744.895447,494.401672 
z"/>
</svg>